<?xml version="1.0" encoding="UTF-8" standalone="no"?>
<svg
   xmlns:dc="http://purl.org/dc/elements/1.1/"
   xmlns:svg="http://www.w3.org/2000/svg"
   xmlns="http://www.w3.org/2000/svg"
   width="62px"
   height="62px"
   viewBox="0 0 62 62"
   version="1.1">
  <circle
     transform="rotate(45)"
     style="opacity:1;fill:#facd5a;fill-opacity:1"
     cx="43.840622"
     cy="0"
     r="28.881697" />
  <path
     d="m 38.399695,27.051809 -7.936436,-4.612022 -1.265976,-1.265976 -8.098395,-8.098395 -2.957234,-2.957234 c -0.701351,-0.7013505 -1.830597,-0.701354 -2.531948,-2e-6 l -5.053386,5.053386 c -0.7013526,0.701352 -0.701349,1.830598 3e-6,2.531948 l 2.957233,2.957235 8.098395,8.098395 1.265975,1.265975 4.612022,7.936437 5.67463,5.674631 10.909748,-10.909747 z"
     style="fill:#5f82c3;"/>
  <path d="m 38.399692,27.051812 2.281069,2.28107 -10.909744,10.909744 -2.281069,-2.28107 z"
     style="fill:#415a87;"/>
  <circle
     transform="rotate(45)"
     r="1.7184228"
     cy="-0.30980629"
     cx="36.977226"
     style="fill:#000000;fill-opacity:0.24747476"/>
  <path
     d="M 59.053092,37.2097 43.17723,33.623225 33.908301,42.892153 c 0,0 1.980162,9.22116 3.446159,16.100952 A 28.881697,28.881697 0 0 0 51.304259,51.304199 28.881697,28.881697 0 0 0 59.053092,37.2097 Z"
     style="fill:#fce094;"/>
  <path
     d="m 56.785738,43.574003 -14.959054,-8.600232 -6.41473,6.41473 8.733241,15.137373 a 28.881697,28.881697 0 0 0 7.159064,-5.221675 28.881697,28.881697 0 0 0 5.481479,-7.730196 z"
     style="fill:#fef9d4;"/>
</svg>
